<svg width="23" height="20" viewBox="0 0 23 20" fill="red" xmlns="http://www.w3.org/2000/svg">
<path d="M22.5099 4.67518L18.4828 0.648129C17.8968 0.0620289 16.9872 -0.00634268 16.3201 0.485556L14.1447 2.08955C14.0657 2.14777 14.016 2.23757 14.0087 2.33541C14.0013 2.43325 14.037 2.52943 14.1064 2.59883L14.6306 3.12307L12.3275 5.42619H10.6724L8.36918 3.12294L8.89351 2.59856C8.96292 2.52916 8.99854 2.43298 8.99122 2.33514C8.98385 2.2373 8.93417 2.1475 8.8552 2.08928L6.67988 0.485646C6.01301 -0.00638767 5.10343 0.0619841 4.51715 0.648309L3.87947 1.28603C3.74794 1.41756 3.74794 1.63085 3.87947 1.76238C4.01101 1.89391 4.2243 1.89391 4.35583 1.76238L4.99355 1.12466C5.34237 0.775843 5.88332 0.735099 6.28007 1.02781L7.00386 1.5614L1.40323 7.16199L0.869639 6.43843C0.577151 6.04118 0.61785 5.49987 0.966402 5.15131L3.40325 2.71451C3.53479 2.58297 3.53479 2.36973 3.40325 2.23815C3.27177 2.10662 3.05848 2.10662 2.9269 2.23815L0.490047 4.67496C-0.0957843 5.26079 -0.164291 6.17042 0.327338 6.83801L1.93156 9.01346C1.98978 9.09243 2.07957 9.14207 2.17742 9.14944C2.18586 9.15007 2.19426 9.15038 2.20266 9.15038C2.29161 9.15038 2.37741 9.11512 2.44084 9.05173L2.96513 8.5274L3.35626 8.91854C2.52988 9.62997 2.04638 10.6684 2.04638 11.7683C2.04638 13.5743 3.33533 15.1165 5.08402 15.4581C5.27417 16.4658 5.9919 17.2891 6.93863 17.6287V18.8386C6.93863 19.3919 7.38857 19.8421 7.94166 19.8421C8.37682 19.8421 8.74806 19.5635 8.88678 19.1755H9.36902C9.50769 19.5635 9.8787 19.8421 10.3137 19.8421C10.7488 19.8421 11.1201 19.5635 11.2588 19.1755H11.7412C11.8799 19.5634 12.251 19.8419 12.6861 19.8419C13.1211 19.8419 13.4922 19.5634 13.6309 19.1755H14.1133C14.252 19.5634 14.6232 19.8419 15.0582 19.8419C15.6114 19.8419 16.0614 19.3919 16.0614 18.8387V16.1906C16.5897 16.1177 17.0645 15.8759 17.4298 15.5214C18.1032 15.4792 18.7502 15.2573 19.3089 14.8757C19.4625 14.7708 19.502 14.5612 19.3971 14.4076C19.2922 14.254 19.0826 14.2145 18.929 14.3194C18.6331 14.5215 18.3068 14.6686 17.9642 14.7571C18.0723 14.5143 18.1421 14.2511 18.1658 13.9747C19.0356 13.5924 19.6052 12.7336 19.6052 11.7683C19.6052 11.0205 19.2617 10.3284 18.6868 9.87547L19.1658 9.39642C19.868 9.98095 20.2799 10.8485 20.2799 11.7682C20.2799 12.3703 20.1057 12.9539 19.776 13.4562C19.674 13.6117 19.7173 13.8205 19.8728 13.9226C19.9298 13.96 19.9939 13.9779 20.0573 13.9779C20.167 13.9779 20.2745 13.9244 20.3392 13.8258C20.7411 13.2135 20.9536 12.502 20.9536 11.7683C20.9536 10.6682 20.47 9.62984 19.6436 8.91876L20.0349 8.5274L20.5592 9.05169C20.6226 9.11507 20.7084 9.15034 20.7974 9.15034C20.8058 9.15034 20.8142 9.15002 20.8226 9.14939C20.9205 9.14202 21.0103 9.09239 21.0685 9.01341L22.6725 6.83805C23.1644 6.17082 23.096 5.26124 22.5099 4.67518ZM17.0792 7.78623C17.0792 7.70168 17.1122 7.62217 17.172 7.56238L18.121 6.61335L18.5686 7.061L17.6196 8.01003C17.5598 8.06982 17.4804 8.10275 17.3958 8.10275C17.3113 8.10275 17.2318 8.06982 17.172 8.01003C17.1122 7.95028 17.0792 7.87077 17.0792 7.78623ZM16.2454 4.7378L16.5447 5.03708L15.5956 5.9861C15.5358 6.04589 15.4564 6.07882 15.3718 6.07882C15.2872 6.07882 15.2078 6.04589 15.1479 5.9861C15.0245 5.8627 15.0245 5.66185 15.1479 5.53845L16.097 4.58943L16.2454 4.7378ZM15.107 3.59943L15.6207 4.11307L14.6716 5.0621C14.2856 5.44816 14.2856 6.07635 14.6716 6.46241C14.8586 6.64942 15.1073 6.75243 15.3718 6.75243C15.6363 6.75243 15.8849 6.64942 16.072 6.46241L17.021 5.51339L17.6446 6.13704L16.6956 7.08607C16.5086 7.27308 16.4056 7.52177 16.4056 7.78623C16.4056 8.05068 16.5086 8.29937 16.6956 8.48639C16.8826 8.6734 17.1313 8.7764 17.3958 8.7764C17.6603 8.7764 17.9089 8.6734 18.0959 8.48639L19.045 7.53736L19.5586 8.051L17.395 10.2146L12.9434 5.76306L15.107 3.59943ZM13.6892 16.2145H14.055V18.5018H13.6892V16.2145ZM11.3771 15.5409L13.2758 13.6769C13.2748 13.7057 13.2736 13.7344 13.2736 13.7634C13.2736 14.4627 13.5684 15.094 14.0397 15.5409H11.3771ZM8.94508 17.6012C9.07154 17.552 9.19364 17.4941 9.31071 17.4282V18.5018H8.94508V17.6012ZM11.3172 16.2145H11.6829V18.5018H11.3172V16.2145ZM10.7645 15.1983C10.7731 15.1081 10.7779 15.0169 10.7779 14.9246C10.7779 13.3409 9.48941 12.0524 7.90572 12.0524C7.84368 12.0524 7.78227 12.0551 7.72118 12.059L9.59906 10.2227C9.66932 11.2103 10.4948 11.9926 11.5 11.9926C12.5512 11.9926 13.4064 11.1374 13.4064 10.0862C13.4064 10.0412 13.4042 9.99676 13.4011 9.95256L15.3331 11.3441C14.8143 11.4278 14.3494 11.6744 13.9933 12.0302L13.9937 12.0281L10.7645 15.1983ZM4.794 10.3563L5.30957 10.8719L5.94109 12.8323C5.74357 13.0179 5.57219 13.2308 5.43324 13.4654C4.65268 13.2921 4.06819 12.5849 4.06819 11.7683C4.06824 11.2027 4.34119 10.6808 4.794 10.3563ZM11.5 8.85353C12.1797 8.85353 12.7327 9.40653 12.7327 10.0862C12.7327 10.766 12.1797 11.319 11.5 11.319C10.8203 11.319 10.2673 10.766 10.2673 10.0862C10.2673 9.40653 10.8203 8.85353 11.5 8.85353ZM16.7636 11.5443C16.7636 11.5443 12.6916 8.59802 12.6441 8.5623C12.3252 8.32228 11.9289 8.17988 11.5 8.17988C11.004 8.17988 10.5517 8.37049 10.2122 8.68207L6.48546 12.3251L5.98884 10.7835L10.6725 6.09985H12.3275L17.0111 10.7834L16.7659 11.5453C16.7651 11.545 16.7643 11.5446 16.7636 11.5443ZM4.87904 6.6134L5.82807 7.56242C5.88786 7.62222 5.92079 7.70168 5.92079 7.78623C5.92079 7.87077 5.88786 7.95028 5.82807 8.01003C5.76827 8.06982 5.68881 8.10275 5.60422 8.10275C5.51967 8.10275 5.44021 8.06982 5.38042 8.01003L4.43139 7.061L4.87904 6.6134ZM2.24134 8.29852L1.80757 7.71031L7.55223 1.96565L8.1403 2.39915L2.24134 8.29852ZM3.95508 7.5374L4.90406 8.48639C5.09107 8.6734 5.33972 8.7764 5.60422 8.7764C5.86872 8.7764 6.11736 8.6734 6.30438 8.48639C6.49139 8.29937 6.59439 8.05068 6.59439 7.78623C6.59439 7.52177 6.49139 7.27308 6.30438 7.08607L5.35535 6.13704L5.36317 6.12923L5.979 5.51339L6.92803 6.46241C7.11504 6.64942 7.36369 6.75243 7.62819 6.75243C7.89269 6.75243 8.14134 6.64942 8.32835 6.46241C8.71441 6.07635 8.71441 5.44816 8.32835 5.0621L7.37932 4.11307L7.89296 3.59943L10.0566 5.76306L5.60498 10.2146L3.44144 8.05109L3.95508 7.5374ZM6.90301 4.58943L7.85204 5.53845C7.97544 5.66185 7.97544 5.8627 7.85204 5.9861C7.79225 6.04589 7.71273 6.07882 7.62819 6.07882C7.54365 6.07882 7.46413 6.04589 7.40434 5.9861L6.45536 5.03708L6.90301 4.58943ZM2.72003 11.7683C2.72003 10.8488 3.13188 9.98113 3.83397 9.39624L4.31311 9.87538C3.73806 10.3283 3.39454 11.0205 3.39454 11.7683C3.39454 12.3729 3.62018 12.9516 4.02992 13.3979C4.33737 13.7327 4.72779 13.9709 5.15724 14.091C5.09251 14.304 5.05194 14.5273 5.03869 14.7579C3.69305 14.4128 2.72003 13.1901 2.72003 11.7683ZM5.70722 14.9246C5.70722 13.7123 6.69349 12.7261 7.90572 12.7261C9.11794 12.7261 10.1042 13.7123 10.1042 14.9246C10.1042 16.1368 9.11794 17.123 7.90572 17.123C6.69349 17.123 5.70722 16.1368 5.70722 14.9246ZM7.94166 19.1684C7.76008 19.1684 7.61229 19.0205 7.61229 18.8386V17.7818C7.70878 17.7917 7.80662 17.7967 7.90567 17.7967C8.02966 17.7967 8.15153 17.7879 8.27143 17.7726V18.8386C8.27143 19.0205 8.1235 19.1684 7.94166 19.1684ZM10.3137 19.1684C10.1321 19.1684 9.98436 19.0205 9.98436 18.8386V16.9082L10.6435 16.2611V18.8386C10.6435 19.0205 10.4956 19.1684 10.3137 19.1684ZM12.6861 19.1683C12.5044 19.1683 12.3565 19.0204 12.3565 18.8387V16.2145H13.0156V18.8387C13.0156 19.0204 12.8678 19.1683 12.6861 19.1683ZM15.0582 19.1683C14.8765 19.1683 14.7287 19.0204 14.7287 18.8387V16.2145H15.3877V18.8387C15.3877 19.0204 15.2399 19.1683 15.0582 19.1683ZM15.7246 15.5407C14.7446 15.5407 13.9473 14.7434 13.9473 13.7634C13.9473 12.7834 14.7445 11.9861 15.7246 11.9861C16.7045 11.9861 17.5019 12.7834 17.5019 13.7634C17.5019 14.7434 16.7045 15.5407 15.7246 15.5407ZM18.9315 11.7683C18.9315 12.377 18.6172 12.9271 18.1186 13.2397C18.0059 12.7243 17.7307 12.2692 17.3494 11.9308L17.6903 10.872L18.2059 10.3564C18.6586 10.6808 18.9315 11.2026 18.9315 11.7683ZM20.7586 8.29839L14.8596 2.39938L15.4478 1.9657L21.1923 7.71022L20.7586 8.29839ZM22.1303 6.43816L21.5966 7.16185L15.9961 1.56135L16.7198 1.02772C17.1168 0.735054 17.6578 0.775753 18.0065 1.12444L22.0335 5.15149C22.3822 5.50018 22.4229 6.04131 22.1303 6.43816Z" fill="#FD3B3B"/>
</svg>
