<svg width="23" height="16" viewBox="0 0 23 16" fill="red" xmlns="http://www.w3.org/2000/svg">
<path d="M21.7425 6.1025L20.3942 5.02366C20.3888 5.01934 20.3834 5.01395 20.378 5.00964L21.6333 4.75844C21.8011 4.72502 21.9219 4.57767 21.9219 4.40625V3.32812C21.9219 3.12975 21.7609 2.96875 21.5625 2.96875H19.7656C19.5672 2.96875 19.4062 3.12975 19.4062 3.32812V3.95775C19.398 3.94661 19.3897 3.93547 19.3815 3.92433C19.3588 3.8618 19.3186 3.81077 19.2675 3.77016C19.0652 3.48373 18.892 3.19695 18.7791 2.94898L18.1718 1.61319C17.7847 0.761109 16.7483 0.09375 15.8125 0.09375H7.1875C6.25169 0.09375 5.21525 0.761109 4.8282 1.61319L4.22122 2.94863C4.10838 3.19659 3.93516 3.48373 3.73283 3.77016C3.6818 3.81077 3.64191 3.8618 3.61891 3.92433C3.61064 3.93547 3.60273 3.94625 3.59411 3.95775V3.32812C3.59411 3.12975 3.43311 2.96875 3.23473 2.96875H1.4375C1.23913 2.96875 1.07812 3.12975 1.07812 3.32812V4.40625C1.07812 4.57767 1.19887 4.72502 1.36706 4.75844L2.62236 5.00964C2.61697 5.01395 2.61158 5.01934 2.60619 5.02366L1.25745 6.1025C0.552359 6.66672 0 7.816 0 8.71875V14.8281C0 15.4225 0.483719 15.9062 1.07812 15.9062H3.95312C4.54753 15.9062 5.03125 15.4225 5.03125 14.8281V14.1094H17.9688V14.8281C17.9688 15.4225 18.4525 15.9062 19.0469 15.9062H21.9219C22.5163 15.9062 23 15.4225 23 14.8281V8.71875C23 7.816 22.4476 6.66672 21.7425 6.1025ZM18.4769 13.3906L17.6529 12.5666C17.3032 12.2169 16.6664 11.9531 16.1719 11.9531H6.64844C6.15394 11.9531 5.51713 12.2169 5.16745 12.5666L4.34341 13.3906H1.79688C1.20247 13.3906 0.71875 12.9069 0.71875 12.3125V10.5156H1.07812V10.875C1.07812 11.6678 1.72284 12.3125 2.51562 12.3125H3.59375C3.79212 12.3125 3.95312 12.1515 3.95312 11.9531C3.95312 11.7548 3.79212 11.5938 3.59375 11.5938H2.51562C2.11923 11.5938 1.79688 11.2714 1.79688 10.875V10.5156H2.51562C2.81391 10.5156 3.2775 10.7075 3.48845 10.9185C3.55853 10.9886 3.65053 11.0238 3.74253 11.0238C3.83453 11.0238 3.92653 10.9886 3.99661 10.9185C4.13713 10.778 4.13713 10.5508 3.99661 10.4103C3.64694 10.0607 3.01048 9.79688 2.51562 9.79688H0.71875V8.71875C0.71875 8.59189 0.738875 8.45497 0.767266 8.31517C0.997266 8.55523 1.33184 8.71875 1.79688 8.71875H4.67188C4.76711 8.71875 4.85839 8.68102 4.92595 8.61345L5.39062 8.14878L5.8553 8.61345C5.9225 8.68102 6.01414 8.71875 6.10938 8.71875H10.2731L11.2459 9.69158C11.316 9.76166 11.408 9.79688 11.5 9.79688C11.592 9.79688 11.684 9.76166 11.7541 9.69158L12.7269 8.71875H16.8906C16.9859 8.71875 17.0775 8.68102 17.1447 8.61345L17.6094 8.14878L18.074 8.61345C18.1413 8.68102 18.2329 8.71875 18.3281 8.71875H21.2031C21.6682 8.71875 22.0027 8.55523 22.2327 8.31517C22.2611 8.45497 22.2812 8.59189 22.2812 8.71875V9.79688H20.4844C19.9899 9.79688 19.3531 10.0607 19.0034 10.4103C18.8629 10.5508 18.8629 10.778 19.0034 10.9185C19.0735 10.9886 19.1655 11.0238 19.2575 11.0238C19.3495 11.0238 19.4415 10.9886 19.5115 10.9185C19.7225 10.7075 20.1861 10.5156 20.4844 10.5156H21.2031V10.875C21.2031 11.2714 20.8808 11.5938 20.4844 11.5938H19.4062C19.2079 11.5938 19.0469 11.7548 19.0469 11.9531C19.0469 12.1515 19.2079 12.3125 19.4062 12.3125H20.4844C21.2772 12.3125 21.9219 11.6678 21.9219 10.875V10.5156H22.2812V12.3125C22.2812 12.9069 21.7975 13.3906 21.2031 13.3906H18.4769ZM17.4606 13.3906H5.35972L5.67561 13.0747C5.88656 12.8638 6.35016 12.6719 6.64844 12.6719H16.1719C16.4702 12.6719 16.9338 12.8638 17.1447 13.0747L17.4606 13.3906ZM4.15438 4.40625H18.8456C19.1939 4.86661 19.5917 5.30217 19.945 5.585L20.3773 5.93072L17.8354 6.94739C17.8351 6.94739 17.8351 6.94775 17.8347 6.94775C17.7912 6.96536 17.7502 6.99159 17.715 7.02681L17.3557 7.38619L16.7418 8H12.5781C12.4829 8 12.3912 8.03773 12.324 8.1053L11.5 8.92934L10.676 8.1053C10.6088 8.03773 10.5171 8 10.4219 8H6.25816L5.6447 7.38655L5.28533 7.02717C5.25011 6.99195 5.20914 6.96572 5.16566 6.94811C5.1653 6.94811 5.1653 6.94775 5.16494 6.94775L2.62308 5.93108L3.05541 5.58536C3.40831 5.30217 3.80614 4.86661 4.15438 4.40625ZM21.9007 7.43183C21.8284 7.80738 21.5956 8 21.2031 8H18.4769L18.1175 7.64062L18.1707 7.58744L21.0224 6.44678L21.2933 6.66384C21.5212 6.84605 21.7314 7.12313 21.9007 7.43183ZM20.125 3.6875H21.2031V4.11156L20.125 4.32719V3.6875ZM4.87492 3.24619L5.48191 1.91075C5.75287 1.31527 6.5338 0.8125 7.1875 0.8125H15.8125C16.4662 0.8125 17.2471 1.31527 17.5177 1.91039L18.1251 3.24619C18.1883 3.38491 18.2706 3.53477 18.3608 3.6875H4.63917C4.72938 3.53477 4.81203 3.38491 4.87492 3.24619ZM1.79688 3.6875H2.875V4.32719L1.79688 4.11156V3.6875ZM1.70631 6.66384L1.97728 6.44678L4.82928 7.58744L4.88247 7.64062L4.52309 8H1.79688C1.40444 8 1.17156 7.80738 1.09933 7.43183C1.26859 7.12313 1.47847 6.84605 1.70631 6.66384ZM3.95312 15.1875H1.07812C0.880109 15.1875 0.71875 15.0261 0.71875 14.8281V13.741C1.01991 13.9689 1.39078 14.1094 1.79688 14.1094H4.3125V14.8281C4.3125 15.0261 4.15114 15.1875 3.95312 15.1875ZM21.9219 15.1875H19.0469C18.8489 15.1875 18.6875 15.0261 18.6875 14.8281V14.1094H21.2031C21.6092 14.1094 21.9801 13.9689 22.2812 13.741V14.8281C22.2812 15.0261 22.1199 15.1875 21.9219 15.1875Z" fill="#FD3B3B"/>
</svg>
